<?xml version="1.0" encoding="UTF-8"?>
<svg id="b" data-name="Layer 2" xmlns="http://www.w3.org/2000/svg" width="14.69" height="26.31" viewBox="0 0 14.69 26.31">
  <g id="c" data-name="Layer 1">
    <g>
      <path d="m7.49,25.45V.08h1.45c3.05,0,5.52,2.47,5.52,5.52v12.52l-6.97,7.34Z" fill="#3564ab"/>
      <path d="m7.53,25.45V.08s-1.45,0-1.45,0c-3.05,0-5.52,2.47-5.52,5.52v12.52s6.97,7.34,6.97,7.34Z" fill="#3f74bf"/>
    </g>
    <path d="m7.42,4.46c-1.92,0-3.48,1.56-3.48,3.48,0,.82.28,1.57.76,2.17.64.8,1.62,1.32,2.73,1.32s2.09-.52,2.73-1.32c.47-.6.76-1.35.76-2.17,0-1.92-1.56-3.48-3.48-3.48Z" fill="#fff"/>
    <path d="m6.93,25.89L0,18.59V5.91C0,2.65,2.65,0,5.91,0h2.86c3.26,0,5.91,2.65,5.91,5.91v12.67l-6.93,7.3-.41.43-.42-.43ZM.79,18.27l6.55,6.9,6.55-6.9V5.91c0-2.82-2.3-5.12-5.12-5.12h-2.86C3.09.79.79,3.09.79,5.91v12.36Z" fill="#234271"/>
  </g>
</svg>