<?xml version="1.0" encoding="UTF-8"?>
<svg id="b" data-name="Layer 2" xmlns="http://www.w3.org/2000/svg" width="19.58" height="35.08" viewBox="0 0 19.58 35.08">
  <g id="c" data-name="Layer 1">
    <g>
      <path d="m9.99,33.93V.1h1.93c4.06,0,7.36,3.29,7.36,7.36v16.69l-9.29,9.78Z" fill="#3564ab"/>
      <path d="m10.04,33.93V.1s-1.93,0-1.93,0c-4.06,0-7.36,3.29-7.36,7.36v16.69s9.29,9.78,9.29,9.78Z" fill="#3f74bf"/>
    </g>
    <path d="m9.89,5.94c-2.56,0-4.65,2.08-4.65,4.65,0,1.09.38,2.09,1.01,2.89.85,1.07,2.16,1.76,3.64,1.76s2.78-.69,3.64-1.76c.63-.79,1.01-1.8,1.01-2.89,0-2.56-2.08-4.65-4.65-4.65Z" fill="#fff"/>
    <path d="m9.24,34.51L0,24.78V7.88C0,3.54,3.54,0,7.88,0h3.81c4.35,0,7.88,3.54,7.88,7.88v16.9l-9.24,9.73-.55.57-.56-.57ZM1.06,24.36l8.74,9.2,8.74-9.2V7.88c0-3.77-3.06-6.83-6.83-6.83h-3.81C4.12,1.06,1.06,4.12,1.06,7.88v16.48Z" fill="#234271"/>
  </g>
</svg>