<?xml version="1.0" encoding="UTF-8"?>
<svg id="Layer_1" data-name="Layer 1" xmlns="http://www.w3.org/2000/svg" version="1.1" viewBox="0 0 1080 886.4">
  <defs>
    <style>
      .cls-1 {
        fill: #fff;
        stroke-width: 0px;
      }
    </style>
  </defs>
  <g>
    <path class="cls-1" d="M92.3,18c46.3,0,65.5,29.1,66.5,54.5v3.3h-25.3c-.8-15.6-10.6-34.9-40.8-34.9s-47.2,21.6-47.2,59.3,16.4,59.3,47.2,59.3,40.3-20,41.5-36h25.1v3.3c-1.5,26.3-20.6,55.6-67.1,55.6S18,153.1,18,100.3,45.7,18,92.3,18Z"/>
    <path class="cls-1" d="M218,159.5h20.1v20.2h-73.1v-20.2h26.9V40.8h-20.7v-20h46.9v138.7Z"/>
    <path class="cls-1" d="M304.2,63.1c34.7,0,55,20.7,55,55v11.7h-87.9c.4,19.1,12.7,32.4,32.8,32.4s28.1-10.1,29.9-18.8h22.9v3.3c-3.1,14.9-17.2,35.5-52.5,35.5s-58.1-20.4-58.1-59.7,22.9-59.6,57.9-59.6ZM334.7,110.4c-.2-15.6-10.6-27.5-30.8-27.5s-30.8,12.2-32.2,27.5h63Z"/>
    <path class="cls-1" d="M390.1,65.8l31.4,85.9h1.8l31.4-85.9h26.4v3.3l-44.2,110.6h-29.7l-44.1-110.6v-3.3h27Z"/>
    <path class="cls-1" d="M542.3,63.1c34.7,0,55,20.7,55,55v11.7h-87.9c.4,19.1,12.7,32.4,32.8,32.4s28.1-10.1,29.9-18.8h22.9v3.3c-3.1,14.9-17.2,35.5-52.5,35.5s-58.1-20.4-58.1-59.7,22.9-59.6,57.9-59.6ZM572.7,110.4c-.2-15.6-10.6-27.5-30.8-27.5s-30.8,12.2-32.2,27.5h63Z"/>
    <path class="cls-1" d="M661.1,159.5h20.1v20.2h-73.1v-20.2h26.9V40.8h-20.7v-20h46.9v138.7Z"/>
    <path class="cls-1" d="M750.3,63.1c30.6,0,49.1,13.6,49.1,43.5v73.1h-24.2v-13.7h-1.8c-4.3,7.7-15,15.9-37.7,15.9s-42.9-12.7-42.9-34.4,17.6-33.1,40.6-36l40.9-5.1v-2.8c0-14.9-8.3-21-24.5-21s-25.6,6.1-26.8,18.5h-24.4v-3.3c2.3-21.3,21-34.9,51.6-34.9ZM740.8,162c18.8,0,33.5-9.8,33.5-30.9v-5.7l-35.3,4.6c-12.2,1.7-20.2,6.3-20.2,16.1s8.4,15.9,22,15.9Z"/>
    <path class="cls-1" d="M848.4,65.8v12.7h1.8c7.9-10.8,20.7-15.1,36.2-15.1,27,0,43.8,13.8,43.8,41.9v74.5h-26.1v-72.1c0-15.9-8.7-23.3-24.3-23.3s-30.4,9.6-30.4,31.8v63.6h-26.1v-113.9h25.3Z"/>
    <path class="cls-1" d="M1062,179.7h-25.4v-13.2h-1.8c-8.4,11.4-21.3,15.7-36.4,15.7-28.9,0-52-19.5-52-59.5s23.1-59.3,52-59.3,27.4,4.2,35.7,14.9h1.7V20.9h26.1v158.8ZM1004.9,161.5c19.3,0,32.1-13.8,32.1-38.8s-12.8-38.7-32.1-38.7-32,13.8-32,38.7,12.8,38.8,32,38.8Z"/>
  </g>
  <path class="cls-1" d="M18,251.6v616.9h1043.9V251.6H18ZM264.5,751.7c-94.2,0-139-55.8-139.5-128.5h79.7c1.7,36,24.4,59.9,59.9,59.9s59.9-26.7,59.9-64-24.4-57.6-58.1-57.6-25,2.9-38.4,8.7l-32.1-45.5,99.3-85.1h-160.1v-65.3h263.2v65.3l-79,67.7c54.2,12.2,87.7,57.1,87.7,111.2,0,77.3-59.9,133.1-142.4,133.1ZM671.7,745.6h-237.5v-65.3h75.8v-240.6h-71.9v-65.3h157.8v305.8h75.8v65.3ZM944.9,745.6h-237.5v-65.3h75.8v-240.6h-71.9v-65.3h157.8v305.8h75.8v65.3Z"/>
</svg>