<?xml version="1.0" encoding="utf-8"?>
<!-- Generator: Adobe Illustrator 27.5.0, SVG Export Plug-In . SVG Version: 6.00 Build 0)  -->
<svg version="1.1" id="Layer_1" xmlns="http://www.w3.org/2000/svg" xmlns:xlink="http://www.w3.org/1999/xlink" x="0px" y="0px"
	 viewBox="0 0 612 792" style="enable-background:new 0 0 612 792;" xml:space="preserve">
<style type="text/css">
	.st0{clip-path:url(#SVGID_00000034794677775968402960000013153264393997815193_);}
	.st1{fill:#FFFFFF;}
</style>
<g>
	<g>
		<defs>
			<rect id="SVGID_1_" x="163.5" y="197.1" width="286" height="286"/>
		</defs>
		<clipPath id="SVGID_00000079451808057983173430000003756898482096343205_">
			<use xlink:href="#SVGID_1_"  style="overflow:visible;"/>
		</clipPath>
		<g style="clip-path:url(#SVGID_00000079451808057983173430000003756898482096343205_);">
			<path class="st1" d="M189.5,317.2c1.8,0.5,5.1,1.1,7.6,0.4c2.5-0.7,4.4-2.4,5.2-5.2c1.5-5.5-3-9.1-8.7-10.6
				c-1.4-0.4-5.1-1.2-7.8-0.4c-3.7,1.1-4.6,4.3-4.9,5.2c-0.9,3.5,0.5,5.8,1.6,6.9C184.3,315.6,187.8,316.8,189.5,317.2z"/>
			<path class="st1" d="M363.6,239.8l3.1-13.3l-9.9,9.5c1.1,0.6,2.2,1.2,3.2,1.8C361.2,238.5,362.4,239.2,363.6,239.8z"/>
			<path class="st1" d="M410.7,325.9c0.7,5.7,6.1,7.3,12,6.6c1.4-0.2,5.2-0.8,7.4-2.6c3-2.4,2.7-5.7,2.6-6.6c-0.4-3.6-2.6-5.2-4-5.8
				c-2.5-1.2-6.1-1-7.9-0.8c-1.9,0.2-5.1,0.9-7.2,2.5C411.5,320.7,410.3,323.1,410.7,325.9z"/>
			<path class="st1" d="M405.6,287.5c1.8-0.3,3.6-1.1,5.4-2.2c1.1-0.7,4.6-2.7,5.2-6.4c0.5-3-1.1-5.7-1.9-7c-0.7-1.2-1.3-2.1-2-3.2
				c-2.1,1.2-3.4,1.9-8.4,4.9c-6.1,3.7-6.8,4.1-9.8,6C396.8,284.2,399.3,288.6,405.6,287.5z"/>
			<path class="st1" d="M408.6,395.5c-1.6-1-4.5-2.6-7.1-2.7c-2.6-0.1-5,0.9-6.5,3.4c-3.1,4.8,0,9.5,5,12.8c1.2,0.8,4.5,2.7,7.3,2.8
				c3.9,0.1,5.7-2.6,6.2-3.4c1.9-3,1.3-5.6,0.6-7.1C412.9,398.7,410,396.5,408.6,395.5z"/>
			<path class="st1" d="M306.6,198.4c-78.3,0-141.7,63.4-141.7,141.7s63.4,141.7,141.7,141.7c78.3,0,141.7-63.4,141.7-141.7
				S384.9,198.4,306.6,198.4z M435.9,322.9c0.9,7.6-3.8,13.1-12.8,14.2c-9.2,1.1-14.7-3.3-15.6-10.9c-0.9-8,3.9-13.2,12.5-14.2
				C428.6,311,434.9,314.9,435.9,322.9z M412.3,263.3l0.4,0.1l3,4.8c2.4,3.9,4.5,7.3,4.4,11.1c-0.2,6.1-5.6,9.3-7,10.1
				c-1.9,1.1-3.8,2-6,2.4c-6.6,1.2-10.4-2.5-12.8-5.7c-0.9-1.2-1.2-1.7-3.9-6.2l-1.4-2.2l0.1-0.3c2.8-1.5,5.3-3,8.7-5.1
				C407.2,266.7,409.9,265,412.3,263.3z M376.4,248.1c3.7-3.8,7.3-7.7,10.9-11.6l0.3-0.1c1.8,1.6,2,1.9,3.7,3.4l0.1,0.5
				c-1.4,5.3-2.9,10.7-4.2,15.7l-2.4,9.5l8.7-9.5c4.1-4.5,4.7-5.2,6.5-7.2l0.4,0c1.3,1.2,1.6,1.5,2.7,2.5l0,0.4
				c-3.4,3.4-6.8,6.8-10.1,10.2c-2.5,2.6-5.1,5.3-7.6,8l-1.1,1.2l-0.3,0.1c-1.7-1.6-1.8-1.7-3.5-3.2l0-0.4c1.2-4.5,2.4-9.1,3.5-13.6
				l3.2-12.2l-9,9.9c-1.1,1.2-2.2,2.4-3.3,3.6c-2.2,2.4-2.2,2.5-3.3,3.7l-0.4,0c-1.2-1.2-1.3-1.3-2.8-2.5l0-0.4
				C371.2,253.5,373.8,250.8,376.4,248.1z M345.5,241.3c3.3-3,6.6-5.9,9.9-8.9c5.4-4.9,7.4-6.7,10.2-9.4l0.4-0.1
				c2.4,1.3,2.7,1.5,4.9,2.6l0.1,0.4l-0.2,0.7c-1,4.4-2,9.3-2.8,13.1c-0.8,3.9-2,10-2.7,13.9l-0.3,0.2c-1.8-0.9-2.6-1.3-4-2.1
				l-0.1-0.4c0.9-3.7,1.2-4.7,2-8.3c-1.4-0.8-2.7-1.5-4-2.3c-1.5-0.8-3.1-1.7-4.4-2.4c-2.8,2.7-3.4,3.4-5.9,5.9l-0.4,0.1
				c-1.5-0.8-1.8-1-3.6-1.8l0-0.3C344.9,241.8,345.2,241.6,345.5,241.3z M331.6,223.4c1.7-5.8,2.5-9,3.1-12l0.3-0.2
				c2,0.5,2.4,0.6,4.3,1.1l0.2,0.3c-2.4,6.9-5,15.9-5.2,16.8c-0.8,2.9-1.2,4.4-1.7,6.2c4.2,1.2,5.3,1.5,10.3,2.8l0.1,0.4
				c-0.5,1.2-0.6,1.8-1,2.8l-0.3,0.2c-6.7-1.9-7.2-2.1-14.3-4l-0.1-0.3C328.4,234.4,329.8,229.9,331.6,223.4z M306.5,222.7
				c0.6-6.5,0.9-10.2,1-14.7l0.3-0.3c7.6,0.6,9.2,0.8,16.3,1.3l0.2,0.3c-0.2,1.2-0.3,1.6-0.5,3l-0.3,0.3c-5-0.6-6.7-0.7-11.6-1.2
				c-0.4,3.6-0.5,4.7-0.8,8.2c4.8,0.5,6.2,0.5,11,0.9l0.2,0.3c-0.3,1.3-0.3,1.7-0.5,3l-0.3,0.3c-4.5-0.5-5.5-0.6-10.7-1.1
				c-0.5,4.5-0.5,5.6-0.8,9.3c5.9,0.5,7.1,0.6,12.1,0.9l0.2,0.3c-0.2,1.3-0.3,1.6-0.4,2.9l-0.3,0.2c-7.6-0.7-8.8-0.7-16.1-1.3
				l-0.2-0.3C305.6,231.9,305.9,229.8,306.5,222.7z M275,210.9c2.2-0.3,2.5-0.4,4.4-0.7l0.3,0.2c1.1,2.6,1.4,3.5,4.9,11.7l5.1,11.7
				l1.7-12.6c0.6-4.2,1.1-8.4,1.6-12.6l0.2-0.3c1.8-0.3,2-0.3,3.8-0.7l0.2,0.2c-0.3,2-2,12-2.3,14.2c-0.7,4-1.5,8.1-2,12.1
				c-0.1,0.5-0.2,1-0.2,1.6l-0.2,0.3c-2.6,0.4-2.8,0.4-5.6,0.9l-0.3-0.2c-1.8-4.1-3.7-8.3-5.6-12.4c-1-2.1-5.9-12.6-6.2-13.2
				L275,210.9z M250.8,219.5c7.1-2.8,8.6-3.3,15.2-6l0.3,0.2c0.3,1.1,0.4,1.6,0.8,2.9l-0.1,0.3c-4.7,1.7-6.3,2.3-10.9,4
				c1.2,3.4,1.6,4.4,2.9,7.8c4.5-1.7,5.8-2.2,10.3-4l0.3,0.2c0.3,1.3,0.5,1.7,0.9,2.9l-0.1,0.3c-4.3,1.5-5.2,1.9-10.1,3.8
				c1.5,4.2,2,5.2,3.3,8.7c5.5-2.1,6.6-2.5,11.2-4.5l0.3,0.2c0.4,1.3,0.5,1.5,0.9,2.8l-0.2,0.4c-7.1,2.7-8.2,3.2-15.1,5.9l-0.3-0.2
				c-1-2.9-1.6-4.9-4.2-11.6c-2.3-6.1-3.7-9.6-5.5-13.7L250.8,219.5z M229.1,232c1.8-1.1,2.1-1.4,3.7-2.5l0.3,0.1
				c3.5,6.4,8.5,14.3,9,15.1c1.6,2.5,2.5,3.9,3.5,5.4c3.7-2.3,4.6-2.9,8.9-5.8l0.4,0.1c0.6,1.2,0.9,1.6,1.4,2.6l0,0.3
				c-5.9,3.7-6.4,4-12.5,8l-0.3-0.1c-1.6-2.7-4-6.7-7.6-12.5c-3.2-5.1-5-7.8-6.8-10.4L229.1,232z M214.1,243.7
				c2.5-2.5,4.7-3.6,5.9-4.2l0.3,0.1c0.9,1.1,1.1,1.4,2.2,2.7l-0.1,0.4c-0.9,0.2-3.2,0.7-5.6,3.1c-4.4,4.4-3.8,9.8,0.9,14.4
				c5.2,5.2,10.5,4.8,14.3,1c2.6-2.6,3.1-5.3,3.4-6.7l0.3-0.1c1.2,1.4,1.5,1.8,2.5,2.9l0,0.4c-0.3,1-1.2,3.6-4,6.4
				c-6,6-13.6,5.6-19.7-0.6c-1.3-1.3-4.6-4.8-4.8-9.8C209.5,248.9,212.2,245.7,214.1,243.7z M194.4,268.3l0.3,0
				c1.1,0.8,1.3,0.9,2.6,1.7l0.1,0.3c-2.4,4.2-3.1,5.3-5.4,9.5c1.4,0.8,4.8,2.8,6.8,3.9l0.8,0.4c2.1-3.9,2.7-5.1,4.5-8.5l0.3-0.1
				c1.5,1,1.7,1.1,2.6,1.7l0.1,0.3c-2,3.3-2.3,4-4.6,8c1.4,0.9,6.6,3.8,10.5,5.5l0.1,0.3c-1,1.9-1.2,2.2-2.1,4l-0.3,0
				c-2.5-1.6-4.4-2.7-14.5-8.3c-4.8-2.7-7-3.8-9.2-4.8l-0.1-0.3C188.2,279.7,193.1,270.7,194.4,268.3z M177.8,305.8
				c2-7.4,8.5-10.7,17.2-8.4c9,2.4,12.4,8.5,10.4,15.9c-2.1,7.8-8.6,10.8-16.9,8.5C180.1,319.6,175.7,313.6,177.8,305.8z
				 M175.2,358.6c-0.1-0.7-0.2-1.5-0.3-2.2c-0.1-0.8-0.2-1.5-0.3-2.2l0.1-0.3c0.2-0.1,0.4-0.2,0.6-0.4c5.4-3.1,6.1-3.5,11.3-6.6
				c-4-1.9-9.6-4.2-12.5-5.3l-0.3-0.3c-0.1-1.9-0.2-2.2-0.4-3.8l0.3-0.3c2.8,1.3,3.4,1.6,9,4.2c4.4,2.1,4.8,2.2,7.3,3.3
				c1.3-0.1,2.1-0.1,3-0.2c1.8-0.1,5.6-0.4,8.4-0.8l0.3,0.2c0.1,2,0.1,2.6,0.3,4.3l-0.3,0.3c-2.3,0-7.4,0.4-9.2,0.5
				c-0.8,0.1-1.3,0.1-1.8,0.2c-4.8,2.9-9.4,5.7-15.2,9.6L175.2,358.6z M184.9,384.1c-1.3,0.3-1.5,0.3-2.8,0.6l-0.3-0.1
				c-0.8-2.7-2-7-2.8-9.7c-0.8-2.9-1.7-5.7-2.6-8.6l0.2-0.3c1.3-0.3,1.8-0.3,2.8-0.7l0.3,0.1c0.8,3.2,1,3.7,1.9,6.9
				c3.8-1,4.4-1.2,7.7-2.1c9.4-2.7,13-3.9,15.3-4.7l0.3,0.1c0.6,2.1,0.6,2.2,1.3,4.3l-0.2,0.3c-5.3,1.3-10.5,2.8-15.8,4.3
				c-3.8,1.1-5.8,1.7-7.4,2.2c1,3.2,1.1,3.6,2.1,6.9L184.9,384.1z M187.6,397.2c-0.8-1.5-1-2.1-2-3.8l0.1-0.4
				c2.4-1,5.2-2.3,11.2-5.2c6.7-3.3,9.5-4.7,13-6.7l0.3,0.1c0.8,1.5,1,2,2,3.8l-0.1,0.3c-2.2,1-4.1,1.8-8.6,4
				c-5.3,2.6-10.5,5.1-15.7,7.9L187.6,397.2z M215.4,415.3c-1.6,1.1-5.5,3.7-10.5,3c-4.9-0.6-7.6-3.9-9.2-6.1
				c-2.1-2.9-2.7-5.2-3.1-6.5l0.2-0.3c1.3-0.6,1.6-0.8,3-1.7l0.3,0.2c0,0.9,0.2,3.3,2.1,6.1c3.6,5.1,9,5.4,14.4,1.7
				c6-4.2,6.5-9.5,3.4-13.9c-2.1-3-4.7-4-6.1-4.5l0-0.3c1.6-0.9,2.1-1.2,3.3-2l0.4,0c1,0.5,3.4,1.8,5.6,5
				C224.2,403,222.5,410.4,215.4,415.3z M306,429.5c-50.5,0-91.4-40.9-91.4-91.4s40.9-91.4,91.4-91.4c50.5,0,91.4,40.9,91.4,91.4
				S356.5,429.5,306,429.5z M416.1,410c-4.2,6.5-11.4,7.6-18.9,2.7c-7.8-5.1-9.2-11.9-5-18.4c4.4-6.7,11.5-7.6,18.7-2.9
				C418.2,396.2,420.5,403.2,416.1,410z M427.3,387.3l-0.3,0.2c-2.4-1-5.3-2.1-11.6-4.4c-7-2.6-10-3.6-13.9-4.7l-0.2-0.3
				c0.5-1.6,0.7-2.1,1.4-4.1l0.3-0.1c2.2,0.9,4.1,1.7,8.8,3.4c5.5,2,11,4,16.6,5.7l0.2,0.3C428.1,384.8,427.9,385.4,427.3,387.3z
				 M435.4,353.8c-2.3-0.4-5.4-1-10.7-1.8c-0.4,2-0.6,3.1-1,5.6c-0.6,3.5-0.8,5.2-1,7c7.3,1.1,8.2,1.2,10.6,1.4l0.2,0.2
				c-0.3,2.1-0.3,2.4-0.6,4.3l-0.3,0.1c-3.7-0.7-6.1-1.1-12.8-2.2c-7.5-1.2-10.3-1.5-13.9-1.8l-0.2-0.3c0.3-2,0.3-2.2,0.6-4.4
				l0.3-0.2c4.3,0.8,8.9,1.7,12.9,2.2c0.1-0.9,0.3-1.8,0.6-3.6c0.5-3,1-6.3,1.3-9c-7.3-1.2-9.9-1.5-12.8-1.8l-0.2-0.2
				c0.3-2.1,0.4-2.2,0.6-4.4l0.3-0.2c3.7,0.8,5.7,1.1,17.3,2.9c5.2,0.8,7,1,9.4,1.2l0.2,0.3c-0.3,2-0.3,2.4-0.6,4.3L435.4,353.8z"/>
		</g>
		<g style="clip-path:url(#SVGID_00000079451808057983173430000003756898482096343205_);">
			<g>
				<path class="st1" d="M278.8,418.2l3.8-10c24.6-14.4,57.2,2.2,64.5,6.3c5.9-3.2,11.4-7.1,16.4-11.6c-42-25.9-70.7-17.5-70.7-17.5
					l3.9-10c26.3-16.7,70.2,10.3,77.9,15.4c3.6-4.7,6.7-9.7,9.3-15.1c-43-30-77.4-23.2-77.4-23.2l4.5-12.5
					c25.4-14.9,71.7,15,78.7,19.8c1.8-7,2.8-14.4,2.8-21.9c0-48-38.6-86.9-86.2-86.9c-30.5,0-57.4,16-72.7,40.1
					c3.8,4,50,51.5,83.1,33.6l-7,17.2c0,0-35.5,13.9-82.4-38.9c-2.2,5.1-4,10.4-5.2,15.9c45.6,48.3,80.7,40.2,80.7,40.2l-5.6,12.5
					c-37.7,9.8-73.6-31.4-77.1-35.5c0,0.6,0,1.3,0,1.9c0,7.5,0.9,14.8,2.7,21.7c33.4,31.8,67.6,27.4,67.6,27.4l-6.8,17.5
					c-16.2,4.8-35-4.9-42.1-9.2c15.8,18.1,39,29.6,64.8,29.6c6.6,0,12.9-0.7,19.1-2.1C297.3,412.6,278.8,418.2,278.8,418.2z
					 M363.4,298.4l0.6-8.1l4.3,6.8l7.7-1.9l-5.1,6l4.3,6.8l-7.6-2.9l-5.2,6.2l0.6-8l-7.5-2.9L363.4,298.4z M338.9,271.3l6.7,4.5
					l6.2-4.9l-2.2,7.6l6.7,4.5l-8.1,0.4l-2.2,7.8l-2.7-7.5l-8,0.4l6.4-5L338.9,271.3z M263,286.3l-2.1,7.7l-2.8-7.6l-8.2,0.2l6.3-5
					l-2.7-7.4l6.5,4.4l6.3-5l-2.1,7.8l6.8,4.5L263,286.3z M288.5,273.9l-5.1,6.2l0.6-8.1l-7.5-3.1l7.8-2l0.5-7.9l4.1,6.7l7.8-2
					l-5.1,6.3l4.3,6.9L288.5,273.9z M316.9,273l-7.2,3.6l3.8-7.2l-5.6-5.9l7.9,1.4l3.7-7l1.1,7.8l7.9,1.4l-7.2,3.7l1.2,8L316.9,273z
					"/>
			</g>
			<polygon class="st1" points="315.8,325.1 319.1,323.5 279.6,419.7 278.2,419.1 			"/>
		</g>
	</g>
	<g>
		<path class="st1" d="M95.2,522.5c-0.7-1.8-1.8-3.2-3.4-4.1c-1.5-0.9-3.4-1.4-5.7-1.4c-3.6,0-6.4,1.2-8.4,3.7
			c-2,2.4-3.1,5.8-3.1,10.2c0,5.1,1,9,3,11.7c2,2.7,5,4,8.8,4c2.2,0,4.2-0.4,5.9-1.1c1.7-0.7,3-1.8,4-3.2l0.8,0.4l-0.7,2.7l-0.5,2.5
			c-1.5,0.8-3.2,1.4-5,1.8s-3.9,0.6-6.1,0.6c-6.1,0-10.9-1.6-14.4-4.9s-5.1-7.8-5.1-13.7c0-5.6,1.8-10.1,5.4-13.4s8.5-5,14.7-5
			c2.1,0,4.2,0.2,6.2,0.7c1,0.2,2,0.5,3,0.9c1,0.3,2,0.8,3,1.3l-1,3.2l-0.7,3.1H95.2z"/>
		<path class="st1" d="M101.7,549.6c0-0.8,0.1-1.8,0.2-2.9c0.2-2.5,0.3-4.1,0.3-4.9c0-1.4,0-2.4,0-3.2c0.1-3.9,0.1-6.1,0.1-6.7
			c0-1.7,0-3.4-0.1-5.2c0-1.7-0.1-3.1-0.1-4.2c0-0.7-0.1-2.5-0.3-5.3c-0.1-1.3-0.2-2.3-0.2-3.1l3.2,0.3l1.9,0.1l1.5-0.1l3.2-0.3
			c0,0.8,0,1.8-0.1,2.9c-0.2,2.6-0.3,4.3-0.3,5c0,1.1,0,2.8-0.1,5.2c0,2.3-0.1,3.9-0.1,4.7v2c0,1.4,0,3.1,0.1,5.1
			c0,2,0.1,3.1,0.1,3.4c0,1.2,0,2.3,0.1,3.6c0.1,1.2,0.2,2.4,0.3,3.6l-3.1-0.2l-2.1-0.1l-1.3,0.1c-0.6,0-1.1,0-1.7,0.1
			C102.6,549.5,102.1,549.6,101.7,549.6z"/>
		<path class="st1" d="M143,519c-0.8-0.1-1.6-0.2-2.4-0.3c-0.8-0.1-1.6-0.2-2.3-0.2c-0.4,0-1.1,0-2.2-0.1c-1.1-0.1-1.9-0.1-2.5-0.1
			l-0.2,3.1v4.2v2.1c0,2.9,0,5.3,0,7.2c0,1.9,0,4,0.1,6.5c0,1.2,0,2.2,0.1,3.1c0.1,0.9,0.2,2.5,0.4,4.9l-3.3-0.2l-1.7-0.1l-2,0.1
			c-0.6,0-1.6,0.1-3,0.2c0-0.6,0.1-2.2,0.3-4.7c0.1-1.2,0.1-2.2,0.1-3c0-1.4,0-2.5,0-3.3c0.1-4,0.1-6.2,0.1-6.8c0-0.5,0-1.5,0-2.8
			s0-2.4,0-3.2l-0.2-7.4c-0.6,0-1.5,0-2.6,0.1c-1.1,0.1-1.8,0.1-2.2,0.1c-0.6,0-1.2,0-1.8,0.1c-0.1,0-1.1,0.1-2.9,0.4l0-0.2l0.2-2.5
			l-0.1-1.3l-0.1-1l8.7,0.3l5.2,0.1l4.9-0.1l9-0.3l-0.1,1.4l0,0.9l0,1.3C142.9,518,142.9,518.5,143,519z"/>
		<path class="st1" d="M153.6,534.2l-5-9.3l-0.5-0.9c-1.1-2-2-3.8-3-5.4c-1-1.7-2-3.2-2.9-4.5l3,0.2l2.2,0.1l2.1-0.1
			c0.2,0,0.7,0,1.5-0.1s1.5-0.1,2.1-0.1c1.2,2.7,2.3,5.3,3.5,7.6c1.1,2.3,2.3,4.6,3.6,6.9c1.3-2,2.5-4.2,3.7-6.6
			c1.2-2.3,2.4-4.9,3.7-7.8l2,0.2l0.8,0l1.3-0.1c0.5,0,1.1-0.1,1.9-0.2c-2.2,3.2-4.2,6.3-6,9.5c-1.8,3.2-3.6,6.5-5.3,10v2.6l0.1,7
			c0,0.7,0,1.5,0.1,2.5c0.1,2.2,0.2,3.5,0.2,4l-3.1-0.2l-1.9-0.1l-1.6,0.1c-0.6,0-1.6,0.1-3,0.2l0.4-5.7c0-0.8,0-1.8,0-3.1
			c0-1.2,0-1.9,0-2.1l-0.1-4.4V534.2z"/>
		<path class="st1" d="M187.8,532.3c0-5.9,1.8-10.6,5.4-13.9c3.6-3.3,8.6-5,15-5c6.2,0,11,1.5,14.4,4.6c3.4,3.1,5.1,7.4,5.1,13
			c0,6.1-1.8,10.8-5.3,14.2c-3.6,3.4-8.6,5.1-15.1,5.1c-6.2,0-11.1-1.5-14.4-4.6C189.5,542.5,187.8,538.1,187.8,532.3z M197.2,531.9
			c0,2.4,0.2,4.4,0.7,6.3c0.5,1.8,1.2,3.4,2.1,4.7c1.9,2.6,4.5,4,7.8,4c3.2,0,5.8-1.3,7.7-4c1.9-2.7,2.8-6.3,2.8-11
			c0-4.7-0.9-8.4-2.8-11.1c-1.9-2.7-4.4-4-7.7-4s-5.8,1.3-7.7,4C198.2,523.5,197.2,527.2,197.2,531.9z"/>
		<path class="st1" d="M232.9,549.6c0.1-0.9,0.2-1.7,0.2-2.1c0.2-1.6,0.3-2.8,0.3-3.8c0-0.8,0-2.1,0.1-4s0.1-3.3,0.1-4.2v-3.6v-2.2
			c0-1.6,0-3.5-0.1-5.6s-0.1-3.3-0.1-3.6c0-1,0-2-0.1-2.9s-0.2-2.1-0.4-3.5l7.1,0.3h3h4.4c0.4,0,1.5,0,3.1-0.1s2.8-0.1,3.4-0.1
			l-0.1,1.3l0,1l0,1l0.1,1.3l-4.1-0.3l-4.1-0.1h-2.1c-0.2,0-0.4,0-0.6,0c-0.2,0-0.4,0-0.6,0.1l-0.1,3.2l-0.1,4.4v2.7l5-0.2l6.4-0.3
			l-0.1,0.8l-0.1,1.6l0.1,1.3l0.1,1.1l-6-0.3l-5.4-0.2v9.7c0,0.5,0,1.1,0,1.7c0,0.7,0,1.4,0.1,2.1c0,0.6,0,1,0.1,1.4s0.1,1,0.3,1.9
			l-2.9-0.1l-2.1-0.1l-2.1,0.1c-0.3,0-0.7,0-1.4,0.1C233.4,549.6,233,549.6,232.9,549.6z"/>
		<path class="st1" d="M301.3,522.5c-0.7-1.8-1.8-3.2-3.4-4.1c-1.5-0.9-3.4-1.4-5.7-1.4c-3.6,0-6.4,1.2-8.4,3.7
			c-2,2.4-3.1,5.8-3.1,10.2c0,5.1,1,9,3,11.7c2,2.7,5,4,8.8,4c2.2,0,4.2-0.4,5.9-1.1c1.7-0.7,3-1.8,4-3.2l0.8,0.4l-0.7,2.7l-0.5,2.5
			c-1.5,0.8-3.2,1.4-5,1.8s-3.9,0.6-6.1,0.6c-6.1,0-10.9-1.6-14.4-4.9s-5.1-7.8-5.1-13.7c0-5.6,1.8-10.1,5.4-13.4s8.5-5,14.7-5
			c2.1,0,4.2,0.2,6.2,0.7c1,0.2,2,0.5,3,0.9c1,0.3,2,0.8,3,1.3l-1,3.2l-0.7,3.1H301.3z"/>
		<path class="st1" d="M307.7,549.6c0.1-0.9,0.2-1.7,0.2-2.1c0.2-1.6,0.3-2.8,0.3-3.8c0-0.8,0-2.1,0.1-4s0.1-3.3,0.1-4.2v-3.6v-2.2
			c0-1.6,0-3.5-0.1-5.6s-0.1-3.3-0.1-3.6c0-1,0-2-0.1-2.9s-0.2-2.1-0.4-3.6l2.3,0.1l2.4,0.1l4.3-0.2h0.4c0.2,0,0.3,0,0.5-0.1
			l-0.4,5.3c0,0.8,0,1.4,0,1.9c-0.1,2-0.1,3.2-0.1,3.5v1.2v12.3c0,0.7,0,1.4,0,2.2s0,1.5,0,2.3c0,0.4,0,0.8,0.1,1.2s0.1,0.8,0.1,1.1
			c0.9,0,1.6,0,2.2,0c2.2-0.1,3.4-0.1,3.6-0.1c0.9,0,1.8,0,2.8-0.1c1.3-0.1,2.2-0.2,2.8-0.3l-0.1,1.4l0,1.1c0,0.1,0,0.3,0,0.5
			c0,0.2,0.1,0.6,0.1,1l0.1,1l-8.6-0.3h-4.5l-4,0.1c-0.5,0-1.2,0-2.1,0.1S308,549.6,307.7,549.6z"/>
		<path class="st1" d="M332.5,549.6c0.1-0.9,0.2-1.7,0.2-2.1c0.2-1.6,0.3-2.8,0.3-3.8c0-0.8,0-2.1,0.1-4c0.1-1.9,0.1-3.3,0.1-4.2
			v-3.6v-2.2c0-1.6,0-3.5-0.1-5.6c-0.1-2.1-0.1-3.3-0.1-3.6c0-1,0-2-0.1-2.9s-0.2-2.1-0.4-3.5l7.1,0.3h3h4.4c0.4,0,1.5,0,3.1-0.1
			c1.7-0.1,2.8-0.1,3.4-0.1l-0.1,0.6l-0.1,1.7c0,0.1,0,0.3,0,0.6s0.1,0.6,0.1,1l0.1,0.7l-4.1-0.3l-4.1-0.1h-2.1l-1.2,0.1l-0.2,3.8
			v3.8v2.7l5-0.2l6.4-0.3l-0.2,1.3l-0.1,1.1l0.1,1.3l0.1,1.1l-5.8-0.3l-5.6-0.2v5.7c0,0.5,0,1.3,0,2.1s0,1.5,0,1.8
			c0,0.4,0,0.8,0.1,1.2s0.1,1,0.2,1.7c0.9,0,1.6,0,2.1,0c2.2-0.1,3.4-0.1,3.6-0.1c0.9,0,1.8,0,2.8-0.1c1.3-0.1,2.2-0.2,2.9-0.3
			l-0.1,1l0,1.4l0.1,1l0.1,1.5l-8.6-0.2l-4.5-0.1l-4,0.1c-0.5,0-1.2,0-2.1,0.1S332.8,549.6,332.5,549.6z"/>
		<path class="st1" d="M368.7,549.6c-0.8-2.6-1.8-5.4-2.9-8.3l-0.2-0.5l-10.4-26.7l3.2,0.2l2.2,0.1l1.4,0l3.4-0.2
			c0.3,1.3,0.6,2.5,0.9,3.5s0.6,1.9,1,2.8l6.8,18l6.5-18.1l0.9-2.9c0.2-0.6,0.3-1.1,0.4-1.6c0-0.2,0.2-0.7,0.4-1.7l1.9,0.2l1.1,0.1
			l1.2-0.1c0.4,0,1.1-0.1,2-0.2l-2.2,4.6l-1.7,4.1l-7.2,18c-0.3,0.6-0.5,1.3-0.8,2c-0.3,0.7-0.5,1.4-0.8,2.2l-1.4,4.7l-1.7-0.2
			l-1.2-0.1l-1.2,0.1C370.1,549.4,369.5,549.5,368.7,549.6z"/>
		<path class="st1" d="M390.6,549.6c0.1-0.9,0.2-1.7,0.2-2.1c0.2-1.6,0.3-2.8,0.3-3.8c0-0.8,0-2.1,0.1-4c0.1-1.9,0.1-3.3,0.1-4.2
			v-3.6v-2.2c0-1.6,0-3.5-0.1-5.6c-0.1-2.1-0.1-3.3-0.1-3.6c0-1,0-2-0.1-2.9s-0.2-2.1-0.4-3.5l7.1,0.3h3h4.4c0.4,0,1.5,0,3.1-0.1
			c1.7-0.1,2.8-0.1,3.4-0.1l-0.1,0.6l-0.1,1.7c0,0.1,0,0.3,0,0.6c0,0.3,0.1,0.6,0.1,1l0.1,0.7l-4.1-0.3l-4.1-0.1h-2.1l-1.2,0.1
			l-0.2,3.8v3.8v2.7l5-0.2l6.4-0.3l-0.2,1.3l-0.1,1.1l0.1,1.3l0.1,1.1l-5.8-0.3l-5.6-0.2v5.7c0,0.5,0,1.3,0,2.1s0,1.5,0,1.8
			c0,0.4,0,0.8,0.1,1.2c0,0.4,0.1,1,0.2,1.7c0.9,0,1.6,0,2.1,0c2.2-0.1,3.4-0.1,3.6-0.1c0.9,0,1.8,0,2.8-0.1
			c1.3-0.1,2.2-0.2,2.9-0.3l-0.1,1l0,1.4l0.1,1l0.1,1.5l-8.6-0.2l-4.5-0.1l-4,0.1c-0.5,0-1.2,0-2.1,0.1S390.9,549.6,390.6,549.6z"/>
		<path class="st1" d="M417.4,549.6c0.1-0.9,0.2-1.7,0.2-2.1c0.2-1.6,0.3-2.8,0.3-3.8c0-0.8,0-2.1,0.1-4c0.1-1.9,0.1-3.3,0.1-4.2
			v-3.6v-2.2c0-1.6,0-3.5-0.1-5.6c-0.1-2.1-0.1-3.3-0.1-3.6c0-1,0-2-0.1-2.9s-0.2-2.1-0.4-3.6l2.3,0.1l2.4,0.1l4.3-0.2h0.4
			c0.2,0,0.3,0,0.5-0.1l-0.4,5.3c0,0.8,0,1.4,0,1.9c-0.1,2-0.1,3.2-0.1,3.5v1.2v12.3c0,0.7,0,1.4,0,2.2s0,1.5,0,2.3
			c0,0.4,0,0.8,0.1,1.2s0.1,0.8,0.1,1.1c0.9,0,1.6,0,2.2,0c2.2-0.1,3.4-0.1,3.6-0.1c0.9,0,1.8,0,2.8-0.1c1.3-0.1,2.2-0.2,2.8-0.3
			l-0.1,1.4l0,1.1c0,0.1,0,0.3,0,0.5s0.1,0.6,0.1,1l0.1,1l-8.6-0.3h-4.5l-4,0.1c-0.5,0-1.2,0-2.1,0.1S417.7,549.6,417.4,549.6z"/>
		<path class="st1" d="M437.6,549.6c2.7-6.2,5.3-12.2,7.7-18.2c2.4-6,4.7-12,6.8-18h0.2c1.2,0.1,2.1,0.2,2.5,0.2l2.1-0.2h0.6
			c2.2,6.4,4.4,12.5,6.7,18.5c0.6,1.6,1.4,3.5,2.3,5.9c0.7,1.7,1.4,3.7,2.3,5.9c1,2.4,1.8,4.4,2.4,5.9l-2.9-0.1l-2.1-0.1
			c-0.2,0-0.6,0-1.2,0c-0.5,0-1,0-1.3,0c-0.3,0-0.8,0-1.5,0.1c-0.7,0-1.1,0.1-1.2,0.1l-1.5-4.8l-1.6-5.2l-2.5-0.1l-3.2-0.1l-2.3,0.1
			l-3.4,0.1c-0.6,1.9-1.7,5.1-3.3,9.7l-0.1,0.3l-1.6-0.1l-1-0.1c-0.2,0-0.4,0-0.6,0s-0.5,0-0.8,0.1c-0.3,0-0.6,0-0.9,0
			C438,549.5,437.7,549.6,437.6,549.6z M448.1,535.4l0.6,0l3.6,0.1l3.9-0.1h0.3c-0.5-1.8-1.2-3.6-1.9-5.4c-0.3-0.8-0.7-1.7-1-2.7
			c-0.4-1-0.8-2-1.3-2.9l-2.3,5.7c-0.3,0.7-0.5,1.4-0.7,2C448.9,533,448.5,534.1,448.1,535.4z"/>
		<path class="st1" d="M473.7,549.6c0-0.8,0-1.8,0.1-2.9c0.2-2.6,0.3-4.3,0.3-5.1c0-1.4,0-2.5,0-3.3c0.1-3.9,0.1-6.1,0.1-6.5
			c0-1,0-2.4-0.1-4.3c-0.1-1.9-0.1-3.1-0.1-3.7c0-0.9-0.1-2.5-0.2-4.7c-0.1-2.2-0.2-3.9-0.2-5.1l2.1,0.2l1.3,0.1h0.5
			c0.1,0,0.3,0,0.4,0c0.2,0,0.4-0.1,0.5-0.1c0.5,0,1.1-0.1,2.1-0.2c3.1,4,6.3,8,9.7,11.9c3.2,3.8,6.6,7.5,10.2,11.3v-9.8
			c0-1.3,0-2.7,0-4c0-1.3,0-2.4-0.1-3.2c0-0.6,0-1.4-0.1-2.3c-0.1-2-0.2-3.3-0.2-3.9l1.6,0.2l1.1,0.1l1.4-0.1l1.5-0.2
			c-0.2,1.3-0.3,2.5-0.4,3.7c-0.1,1.2-0.2,2.5-0.2,4c0,1.7,0,3.2,0,4.3c-0.1,5.5-0.1,8.8-0.1,10.1v2.5c0,1.2,0,2.4,0.1,3.6
			s0.1,2.1,0.1,2.8c0,0.9,0,1.5,0,2c0,0.4,0.1,1.3,0.2,2.6l-1.9-0.2l-1.2-0.1l-1.2,0.1c-0.4,0-1,0.1-1.9,0.2
			c-3.3-4.1-6.6-8.1-9.9-11.9c-3.4-3.9-6.9-7.8-10.5-11.7v14.4v3.9l0.2,5.3l-1.6-0.2l-1.2-0.1l-0.9,0.1
			C475.1,549.4,474.6,549.5,473.7,549.6z"/>
		<path class="st1" d="M512.4,549.6c0.2-1.7,0.3-2.8,0.3-3.3c0-0.5,0.1-1.1,0.1-1.8c0-0.9,0-1.7,0-2.3c0.1-2.8,0.1-4.4,0.1-4.8V531
			v-3.7c0-1.1,0-2.5-0.1-4.1s-0.1-2.8-0.1-3.4c0-0.9,0-1.8-0.1-2.7c-0.1-0.9-0.2-1.9-0.3-3l2.1,0.1l2.2,0c0.5,0,1.3,0,2.6-0.1
			c1.3,0,2.1-0.1,2.5-0.1l4-0.1c4.4,0,7.5,0.2,9.3,0.5c1.8,0.3,3.3,0.9,4.6,1.7c2.3,1.3,4,3.2,5.1,5.7c1.1,2.5,1.7,5.5,1.7,9.1
			c0,6.2-1.8,10.8-5.3,13.9c-3.6,3.1-8.9,4.7-16,4.7h-4.4l-4-0.1l-1.8,0L512.4,549.6z M521.8,545.7l1.6,0.3l1.5,0.1
			c4.1,0,7.1-1.2,9.2-3.7c2.1-2.4,3.1-6.1,3.1-10.9c0-4.9-0.9-8.5-2.8-10.6c-1.9-2.2-5.1-3.2-9.5-3.2h-1.8c-0.2,0-0.4,0-0.6,0
			c-0.2,0-0.4,0-0.7,0.1l-0.1,3.9l-0.1,10.8v5.4L521.8,545.7z"/>
		<path class="st1" d="M103,603.6c1.1-5.4,2-10.7,2.7-15.9c0.3-2.4,0.7-4.9,1-7.6c0.3-2.7,0.6-5.3,0.8-7.8h1.7
			c2.3,4.7,4.5,9.1,6.6,13.1c1.3,2.4,1.9,3.7,2,3.9c0.4,0.8,1.1,2,2,3.7c0.8,1.4,1.4,2.6,1.9,3.6c2-3.6,4-7.5,6.1-11.5
			c1.1-2.3,2.2-4.3,3.1-6.2c1.1-2.2,2.1-4.3,3.2-6.6h1.7c0,1.7,0.1,3.5,0.3,5.4c0.1,1.2,0.3,3,0.6,5.3c0.4,3.3,0.7,5,0.7,5.3
			c0.2,1.6,0.4,3.4,0.7,5.4c0.3,2,0.5,3.5,0.6,4.7c0.2,1.2,0.4,2.9,0.8,5.2l-1.3-0.3l-1.3-0.1c-0.2,0-0.5,0-0.7,0
			c-0.2,0-0.5,0.1-0.7,0.1c-0.2,0-0.6,0.1-1.2,0.2c0-1.2,0-2.4-0.1-3.7s-0.2-2.6-0.3-3.8s-0.2-2.5-0.4-3.8c-0.2-2-0.4-4-0.6-5.8
			s-0.5-3.7-0.8-5.8l-6.4,12.6c-1,2-1.9,3.9-2.7,5.7c-0.7,1.6-1.3,3.1-1.9,4.6l-0.2-0.1h-0.3h-0.4l-0.2,0.1c-0.9-2-1.5-3.3-1.8-3.9
			c-0.6-1.4-1.3-2.6-1.8-3.8c-0.2-0.4-0.8-1.6-1.9-3.8c-1-1.9-1.9-3.7-2.9-5.5s-2-3.7-3-5.5l-1.3,12.5c-0.1,0.8-0.2,1.7-0.3,2.7
			c-0.1,0.9-0.1,1.7-0.1,2.4l-0.2,5.1l-1-0.1l-0.9-0.1l-0.9,0.1c-0.1,0-0.3,0-0.4,0C103.5,603.5,103.3,603.5,103,603.6z"/>
		<path class="st1" d="M156.4,600.8c-0.9,1.1-2,1.9-3.1,2.5c-1.1,0.6-2.4,0.8-3.7,0.8c-1.9,0-3.4-0.5-4.5-1.6s-1.7-2.5-1.7-4.3
			c0-1.9,0.5-3.3,1.4-4.2c1-0.9,2.9-1.8,5.9-2.4l4.1-0.9c0.6-0.1,1.1-0.4,1.4-0.7c0.3-0.3,0.4-0.9,0.4-1.6c0-1.6-0.4-2.8-1.3-3.7
			c-0.9-0.9-2.1-1.4-3.8-1.4c-1.3,0-2.4,0.3-3.3,0.9c-0.9,0.6-1.6,1.5-2.1,2.6l-0.9-0.4l0.2-2.4c1-0.9,2-1.5,3.2-2
			c0.6-0.2,1.2-0.4,1.9-0.5c0.7-0.1,1.4-0.2,2.1-0.2c2.7,0,4.7,0.6,5.9,1.7s1.8,2.9,1.8,5.5v10.7c0,1.1,0.1,1.8,0.4,2.1
			c0.3,0.3,0.8,0.5,1.5,0.5h0.2l1.1,0v0.9c-0.9,0.4-1.6,0.7-2.3,0.8s-1.3,0.3-1.8,0.3c-0.9,0-1.6-0.2-2.1-0.7
			C156.8,602.6,156.5,601.9,156.4,600.8z M156.4,592.2l-2.7,0.5c-2.1,0.4-3.6,1-4.6,1.7s-1.5,1.8-1.5,3.1c0,1.2,0.3,2.1,1,2.9
			c0.7,0.7,1.5,1.1,2.6,1.1c1.5,0,2.8-0.5,3.7-1.4c0.9-0.9,1.4-2.2,1.4-3.8V592.2z"/>
		<path class="st1" d="M172.9,604.3c-1.4-3.8-2.9-7.5-4.4-11c-0.8-1.9-1.6-3.8-2.4-5.6c-0.8-1.9-1.7-3.8-2.6-5.7l1.3,0.1l1.4,0h0.5
			c0.2,0,0.4,0,0.5,0c0.2,0,0.3,0,0.3,0l1.2-0.1c0.2,0.8,0.4,1.4,0.5,1.8c0.1,0.4,0.3,1,0.6,1.8s0.5,1.4,0.7,1.9
			c0.2,0.5,0.4,1.1,0.7,1.8l4,10l3.7-9.4c0.3-0.6,0.6-1.7,1.1-3.1l1.5-4.8l0.9,0.1l0.9,0h0.4c0.1,0,0.2,0,0.3,0c0.1,0,0.2,0,0.3,0
			l0.8-0.1c-3.4,7-6.4,13.4-8.9,19.5c-2.5,5.8-4.3,10.5-5.5,14.4l-0.9-0.2l-0.9,0c-0.1,0-0.3,0-0.4,0s-0.3,0-0.5,0l-1,0.2
			L172.9,604.3z"/>
		<path class="st1" d="M208.6,592.9c0,3.4-1,6.2-3,8.2c-2,2.1-4.7,3.1-8.1,3.1c-3.4,0-6.1-1-8.1-3c-2-2-3-4.8-3-8.3
			c0-3.4,1-6.2,3-8.3c2-2.1,4.7-3.1,8.1-3.1c3.4,0,6.1,1,8.1,3C207.6,586.6,208.6,589.3,208.6,592.9z M203.9,592.9
			c0-3.1-0.6-5.5-1.7-7.2c-1.1-1.7-2.7-2.5-4.7-2.5c-2,0-3.6,0.9-4.8,2.6c-1.1,1.7-1.7,4.1-1.7,7.1c0,3,0.6,5.4,1.7,7.1
			s2.7,2.6,4.8,2.6c2,0,3.6-0.9,4.7-2.6C203.4,598.2,203.9,595.9,203.9,592.9z"/>
		<path class="st1" d="M213,603.6c0.1-0.6,0.1-1.3,0.2-2c0.1-0.7,0.1-1.5,0.1-2.5l0.1-9.8c0-0.7,0-1.3,0-2.1c0-0.7,0-1.5-0.1-2.3
			c0-0.4,0-0.9-0.1-1.4c-0.1-0.5-0.1-1-0.2-1.5l1.1,0.1l1.3,0h0.5c0.1,0,0.2,0,0.4,0c0.2,0,0.3,0,0.4,0l1.1-0.1l-0.3,2.2v1.8v0.5
			c0.9-1.7,1.9-2.9,3-3.8s2.5-1.3,4-1.3l0.6,0c0.2,0,0.3,0,0.4,0l-0.1,1.3l0,0.9c0,0.4,0,0.7,0,0.9s0.1,0.6,0.2,1.2l0,0.1
			c-0.3-0.1-0.6-0.1-0.8-0.2c-0.3-0.1-0.6-0.1-1-0.2l-1.2-0.1c-0.6,0-1.3,0.1-1.9,0.4c-0.6,0.3-1.1,0.6-1.6,1.1
			c-0.6,0.6-1,1.4-1.3,2.2c-0.2,0.8-0.4,1.9-0.4,3.3v0.9v3.8c0,0.3,0,0.8,0.1,1.5s0.1,1.2,0.1,1.6l0.3,3.4l-1.4-0.2l-1,0l-1.1,0.1
			c-0.2,0-0.4,0-0.6,0.1C213.3,603.5,213.1,603.6,213,603.6z"/>
		<path class="st1" d="M235.9,609.6c1.2-0.2,2.1-0.5,2.8-0.8c0.7-0.3,1.4-0.8,2-1.3c0.7-0.7,1.2-1.7,1.5-3.1
			c0.3-1.4,0.5-3.8,0.5-7.5c0-2.3,0-4.3,0-6.2c-0.1-5.6-0.1-8.5-0.1-8.6c0-1.9,0-3.5-0.1-4.9s-0.2-2.8-0.4-4.3l1.4,0.2l1.3,0h0.5
			c0.1,0,0.3,0,0.4,0c0.2,0,0.3,0,0.4,0l1.4-0.2c-0.1,1.1-0.2,2.2-0.3,3.4s-0.1,2.3-0.1,3.4c0,1.3,0,2.2,0,2.9
			c-0.1,3.4-0.1,5.3-0.1,5.6l0.1,9.2l0,1.6c0,4.2-0.8,7.2-2.4,8.9c-0.8,0.9-1.9,1.6-3.3,2.1c-1.4,0.5-3.1,0.8-5,0.8L235.9,609.6z"/>
		<path class="st1" d="M272.8,582c0,0.2,0,0.9-0.1,2.1s-0.1,2-0.1,2.5c0,1.6,0,3,0,4.4s0,2.7,0,3.9c0,1.2,0,2.2,0,3
			c0,0.8,0,1.6,0,2.4c0,0.6,0,1.1,0.1,1.5c0,0.5,0.1,1,0.2,1.6l-1.1-0.2l-1-0.1l-1,0.1c-0.2,0-0.4,0-0.6,0.1c-0.2,0-0.4,0.1-0.5,0.1
			l0.1-1.8l0.1-2c-1,1.5-2,2.7-3.2,3.4c-1.2,0.7-2.6,1.1-4.2,1.1c-2.5,0-4.3-0.7-5.4-2s-1.8-3.4-1.8-6.2v-6.4c0-0.9,0-1.7,0-2.4
			c0-0.7,0-1.4,0-2l-0.1-3.1l1.1,0.1l1.2,0h0.5c0.1,0,0.2,0,0.4,0c0.2,0,0.3,0,0.4,0l1.1-0.1l-0.3,7.7l-0.1,5.8c0,2,0.4,3.5,1.2,4.5
			s2,1.4,3.7,1.4c2,0,3.4-0.7,4.3-2.1c0.9-1.4,1.4-3.7,1.4-6.9l0-4.9c0-0.6,0-1.2-0.1-1.9c-0.1-1.8-0.1-2.9-0.1-3.5l1,0.1l1.2,0h0.4
			c0.1,0,0.2,0,0.4,0c0.2,0,0.3,0,0.4,0L272.8,582z"/>
		<path class="st1" d="M279.2,598.2h0.4c0.3,1.4,0.9,2.4,1.8,3.1c0.9,0.7,2,1,3.5,1c1.5,0,2.7-0.3,3.6-1c0.9-0.7,1.3-1.6,1.3-2.8
			c0-1.6-1.5-2.8-4.4-3.8l-1.1-0.4c-2.1-0.7-3.6-1.5-4.5-2.4s-1.4-2.1-1.4-3.6c0-2.1,0.7-3.7,2.2-5c1.5-1.3,3.4-1.9,5.8-1.9
			c1,0,1.9,0.1,2.9,0.4c1,0.2,2,0.6,3,1.1c-0.1,0.3-0.1,0.5-0.2,0.7c-0.1,0.4-0.3,0.7-0.4,0.9l-0.7,2.3h-0.4c-0.2-1.2-0.6-2-1.4-2.6
			s-1.8-0.9-3.1-0.9c-1.3,0-2.3,0.3-3.1,1s-1.2,1.6-1.2,2.6c0,1.5,1.5,2.7,4.6,3.6c0.1,0,0.3,0.1,0.4,0.1c0.1,0,0.3,0.1,0.4,0.1
			c2.3,0.7,3.9,1.5,4.8,2.4c0.8,0.9,1.3,2.1,1.3,3.7c0,2.2-0.8,4-2.4,5.3c-1.6,1.3-3.8,2-6.5,2c-1.2,0-2.3-0.1-3.4-0.3
			c-1.1-0.2-2.1-0.6-3-1l0.4-1.7L279.2,598.2z"/>
		<path class="st1" d="M299.7,584h-0.6l-1.5,0.1l-1.5,0.2l0.1-0.4l0-0.7l0-0.7l-0.1-0.4l1.8,0.2l1.9,0.1v-1.7l-0.1-1.4l-0.2-2
			c0.4-0.1,0.8-0.2,1.2-0.4s0.8-0.3,1.2-0.5c0.8-0.4,1.5-0.8,2.2-1.2l-0.3,2.9l-0.1,2.2v2.1l2.7-0.1c0.4,0,0.7,0,1.1-0.1
			c0.3,0,0.7-0.1,1.2-0.2l0,0.7l-0.1,0.4l0.1,1v0.1l-2.1-0.2l-2.1-0.1h-0.8l-0.2,11v1.1c0,2.3,0.3,3.9,0.8,4.7s1.5,1.2,2.8,1.2h0.8
			c0.3,0,0.7-0.1,1.2-0.2l0,1.6c-0.7,0.2-1.4,0.4-2.1,0.5c-0.7,0.1-1.3,0.2-2,0.2c-1.9,0-3.3-0.5-4.2-1.5s-1.4-2.6-1.4-4.8l0.1-3.3
			l0.1-3.8L299.7,584z"/>
		<path class="st1" d="M312.4,574.4c0-0.7,0.2-1.3,0.7-1.8c0.5-0.5,1.1-0.7,1.8-0.7c0.8,0,1.5,0.2,1.9,0.7c0.5,0.4,0.7,1.1,0.7,1.9
			c0,0.7-0.2,1.3-0.7,1.7c-0.5,0.4-1,0.6-1.8,0.6c-0.8,0-1.5-0.2-2-0.7S312.4,575.2,312.4,574.4z M312.5,603.6c0-0.4,0-0.9,0.1-1.6
			c0.1-1.6,0.2-2.7,0.2-3.5l0.1-7.9c0-1,0-1.9,0-2.9c0-0.9,0-1.6-0.1-2.2c0-0.6,0-1.1-0.1-1.6c0-0.5-0.1-1.1-0.2-1.9l1.1,0.1h1.2
			h0.5c0.1,0,0.2,0,0.4,0c0.2,0,0.3,0,0.4,0l1.1-0.1l-0.2,3.1c0,0.9,0,1.7,0,2.6c0,0.8,0,1.6,0,2.3l0.1,7.8c0,0.8,0,1.6,0.1,2.4
			c0.1,2.1,0.2,3.2,0.2,3.4l-1.2-0.2l-1.1-0.1l-1.1,0.1c-0.2,0-0.4,0-0.6,0.1C312.8,603.5,312.6,603.6,312.5,603.6z"/>
		<path class="st1" d="M323.6,603.6c0-0.4,0-0.8,0.1-1.4c0.1-1.5,0.2-2.5,0.2-3.2l0.1-8.4c0-0.8,0-1.7,0-2.6c0-0.9,0-1.8-0.1-2.8
			c0-0.6,0-1,0-1.3c0-0.2-0.1-0.9-0.2-2l1,0.1l1.2,0h0.4c0.1,0,0.2,0,0.3,0c0.2,0,0.3,0,0.4,0l1-0.1l-0.1,2.4v0.6c0,0.2,0,0.4,0,0.6
			c0,0.2,0,0.3,0,0.4c0.9-1.4,2-2.5,3.3-3.3c0.7-0.4,1.3-0.7,2.1-0.9c0.7-0.2,1.5-0.3,2.3-0.3c1.1,0,2.1,0.2,3.1,0.6
			c1,0.4,1.8,1,2.4,1.7c0.5,0.6,0.8,1.3,1.1,2c0.2,0.8,0.3,2,0.3,3.6v6.6c0,0.4,0,1.1,0,1.9c0,0.9,0,1.5,0,1.9c0,0.4,0,1,0.1,1.8
			c0.1,0.8,0.1,1.4,0.1,1.9l-1.2-0.2l-1.1-0.1l-1.1,0.1c-0.2,0-0.4,0-0.7,0.1c-0.2,0-0.4,0.1-0.5,0.1l0.2-6.1l0.1-4v-2.3
			c0-1.6-0.1-2.7-0.2-3.4c-0.2-0.7-0.4-1.3-0.8-1.8c-0.4-0.5-0.9-0.9-1.6-1.2c-0.7-0.3-1.4-0.5-2.2-0.5c-1.9,0-3.4,0.7-4.3,2.2
			s-1.4,3.7-1.4,6.8c0,0.7,0,1.7,0,3s0,2.2,0,2.7c0,0.6,0,1.2,0.1,1.8c0.1,1.7,0.2,2.6,0.2,2.8l-1.1-0.1l-1.1-0.1l-1.1,0.1
			c-0.2,0-0.4,0-0.6,0.1C323.9,603.5,323.7,603.6,323.6,603.6z"/>
		<path class="st1" d="M359.6,603.6c1.1-5.4,2-10.7,2.7-15.9c0.3-2.4,0.7-4.9,1-7.6c0.3-2.7,0.6-5.3,0.8-7.8h1.7
			c2.3,4.7,4.5,9.1,6.6,13.1c1.3,2.4,1.9,3.7,2,3.9c0.4,0.8,1.1,2,2,3.7c0.8,1.4,1.4,2.6,1.9,3.6c2-3.6,4-7.5,6.1-11.5
			c1.1-2.3,2.2-4.3,3.1-6.2c1.1-2.2,2.1-4.3,3.2-6.6h1.7c0,1.7,0.1,3.5,0.3,5.4c0.1,1.2,0.3,3,0.6,5.3c0.4,3.3,0.7,5,0.7,5.3
			c0.2,1.6,0.4,3.4,0.7,5.4c0.3,2,0.5,3.5,0.6,4.7c0.2,1.2,0.4,2.9,0.8,5.2l-1.3-0.3l-1.3-0.1c-0.2,0-0.5,0-0.7,0
			c-0.2,0-0.5,0.1-0.7,0.1c-0.2,0-0.6,0.1-1.2,0.2c0-1.2,0-2.4-0.1-3.7s-0.2-2.6-0.3-3.8s-0.2-2.5-0.4-3.8c-0.2-2-0.4-4-0.6-5.8
			s-0.5-3.7-0.8-5.8l-6.4,12.6c-1,2-1.9,3.9-2.7,5.7c-0.7,1.6-1.3,3.1-1.9,4.6l-0.2-0.1h-0.3H377l-0.2,0.1c-0.9-2-1.5-3.3-1.8-3.9
			c-0.6-1.4-1.3-2.6-1.8-3.8c-0.2-0.4-0.8-1.6-1.9-3.8c-1-1.9-1.9-3.7-2.9-5.5s-2-3.7-3-5.5l-1.3,12.5c-0.1,0.8-0.2,1.7-0.3,2.7
			c-0.1,0.9-0.1,1.7-0.1,2.4l-0.2,5.1l-1-0.1l-0.9-0.1l-0.9,0.1c-0.1,0-0.3,0-0.4,0C360,603.5,359.8,603.5,359.6,603.6z"/>
		<path class="st1" d="M401.7,601.3c0-0.8,0.3-1.5,0.8-2s1.2-0.8,2-0.8c0.8,0,1.5,0.3,2,0.8s0.9,1.2,0.9,2c0,0.8-0.3,1.5-0.8,2
			c-0.6,0.6-1.2,0.8-2,0.8c-0.8,0-1.5-0.3-2-0.9C402,602.7,401.7,602.1,401.7,601.3z"/>
		<path class="st1" d="M426.8,603.6c0-1,0.1-2.6,0.2-4.7s0.2-3.6,0.2-4.6s0-2.5,0.1-4.5s0.1-3.5,0.1-4.5c0-0.9,0-2.1-0.1-3.6
			s-0.1-2.6-0.1-3.3c0-0.9,0-1.8-0.1-2.6c-0.1-0.9-0.1-1.8-0.3-2.9l1.7,0.1l1.7,0c0.3,0,0.9,0,1.8,0s1.6,0,2,0l3.6-0.1
			c2.8,0,5,0.6,6.6,1.8s2.4,2.9,2.4,5c0,1.9-0.7,3.5-2,4.7s-3.4,2.1-6.1,2.6c1.5,0,2.9,0.2,4.1,0.6c1.2,0.4,2.2,0.9,3,1.6
			c1.5,1.2,2.3,3.1,2.3,5.5c0,2.7-1.1,4.9-3.2,6.5s-5,2.4-8.7,2.4l-2.5-0.1l-3.2-0.1c-0.2,0-0.5,0-0.9,0c-0.4,0-0.7,0-0.9,0
			L426.8,603.6z M431.5,586.3l0.6,0.1h0.9c2.9,0,5-0.5,6.5-1.6s2.3-2.6,2.3-4.7c0-1.7-0.6-3.1-1.9-4.1c-0.6-0.5-1.4-0.8-2.2-1.1
			c-0.9-0.2-1.9-0.4-3-0.4h-1.2c-0.3,0-0.5,0-0.8,0s-0.6,0-1,0.1l-0.1,1.2v2.4v1.8L431.5,586.3z M431.6,588.1v8.8c0,0.4,0,0.9,0,1.4
			c0,0.5,0,1,0,1.5c0,0.3,0,0.5,0,0.8c0,0.3,0.1,0.6,0.1,1l1.4,0.1h1.3c2.8,0,4.9-0.6,6.4-1.7c1.4-1.2,2.2-2.9,2.2-5.1
			c0-2.3-0.8-4.1-2.3-5.2c-1.5-1.1-4-1.7-7.3-1.7l-1.1,0.1C432,588.1,431.7,588.1,431.6,588.1z"/>
		<path class="st1" d="M452.6,574.4c0-0.7,0.2-1.3,0.7-1.8c0.5-0.5,1.1-0.7,1.8-0.7c0.8,0,1.5,0.2,1.9,0.7c0.5,0.4,0.7,1.1,0.7,1.9
			c0,0.7-0.2,1.3-0.7,1.7c-0.5,0.4-1,0.6-1.8,0.6c-0.8,0-1.5-0.2-2-0.7S452.6,575.2,452.6,574.4z M452.7,603.6c0-0.4,0-0.9,0.1-1.6
			c0.1-1.6,0.2-2.7,0.2-3.5l0.1-7.9c0-1,0-1.9,0-2.9c0-0.9,0-1.6-0.1-2.2c0-0.6,0-1.1-0.1-1.6c0-0.5-0.1-1.1-0.2-1.9l1.1,0.1h1.2
			h0.5c0.1,0,0.2,0,0.4,0c0.2,0,0.3,0,0.4,0l1.1-0.1l-0.2,3.1c0,0.9,0,1.7,0,2.6c0,0.8,0,1.6,0,2.3l0.1,7.8c0,0.8,0,1.6,0.1,2.4
			c0.1,2.1,0.2,3.2,0.2,3.4l-1.2-0.2l-1.1-0.1l-1.1,0.1c-0.2,0-0.4,0-0.6,0.1C453,603.5,452.8,603.6,452.7,603.6z"/>
		<path class="st1" d="M463.5,569.8l1.1,0.1l1.2,0h0.5c0.1,0,0.2,0,0.4,0c0.2,0,0.3,0,0.4,0l1-0.1l-0.2,3.2c0,1,0,2,0,2.9
			s0,1.9,0,2.8v6.6c0.7-1.3,1.7-2.3,2.9-2.9c1.2-0.6,2.6-0.9,4.4-0.9c2.9,0,5.1,1,6.7,3.1c1.6,2,2.4,4.9,2.4,8.7c0,3.4-0.9,6-2.6,8
			s-4.1,2.9-7,2.9c-1.5,0-2.8-0.3-4-0.8c-1.2-0.5-2.3-1.3-3.3-2.4c-0.4,0.3-0.9,0.7-1.2,1.2c-0.4,0.4-0.8,0.9-1.2,1.5h-1.4
			c0.1-0.9,0.2-1.8,0.3-2.6c0.1-0.9,0.1-1.8,0.1-2.7c0-0.7,0-2.3,0-4.7c0-2.4,0-4.2,0-5.4v-5c0-1.7,0-3.2,0-4.4c0-1.3,0-2.5,0-3.7
			c0-0.8,0-1.8-0.1-3.1C463.5,570.8,463.5,570.1,463.5,569.8z M479.4,592.9c0-2.9-0.5-5.1-1.6-6.7c-1.1-1.6-2.5-2.5-4.3-2.5
			c-1.9,0-3.3,0.8-4.4,2.5s-1.6,3.9-1.6,6.7c0,2.9,0.5,5.1,1.6,6.7s2.5,2.4,4.4,2.4c1.8,0,3.3-0.8,4.4-2.4
			C478.9,598,479.4,595.8,479.4,592.9z"/>
		<path class="st1" d="M488.5,569.8l1.1,0.1l1.2,0h0.5c0.1,0,0.2,0,0.4,0c0.2,0,0.3,0,0.4,0l1-0.1l-0.2,3.2c0,1,0,2,0,2.9
			c0,1,0,1.9,0,2.8v6.6c0.7-1.3,1.7-2.3,2.9-2.9c1.2-0.6,2.6-0.9,4.4-0.9c2.9,0,5.1,1,6.7,3.1c1.6,2,2.4,4.9,2.4,8.7
			c0,3.4-0.9,6-2.6,8c-1.7,2-4.1,2.9-7,2.9c-1.5,0-2.8-0.3-4-0.8c-1.2-0.5-2.3-1.3-3.3-2.4c-0.4,0.3-0.9,0.7-1.2,1.2
			s-0.8,0.9-1.2,1.5h-1.4c0.1-0.9,0.2-1.8,0.3-2.6c0.1-0.9,0.1-1.8,0.1-2.7c0-0.7,0-2.3,0-4.7c0-2.4,0-4.2,0-5.4v-5
			c0-1.7,0-3.2,0-4.4s0-2.5,0-3.7c0-0.8,0-1.8-0.1-3.1C488.6,570.8,488.5,570.1,488.5,569.8z M504.4,592.9c0-2.9-0.5-5.1-1.6-6.7
			c-1.1-1.6-2.5-2.5-4.3-2.5c-1.9,0-3.3,0.8-4.4,2.5s-1.6,3.9-1.6,6.7c0,2.9,0.5,5.1,1.6,6.7c1.1,1.6,2.5,2.4,4.4,2.4
			c1.8,0,3.3-0.8,4.4-2.4C503.9,598,504.4,595.8,504.4,592.9z"/>
	</g>
</g>
</svg>
