<?xml version="1.0" encoding="UTF-8"?>
<svg id="b" data-name="Layer 2" xmlns="http://www.w3.org/2000/svg" width="22" height="22.97" viewBox="0 0 22 22.97">
  <g id="c" data-name="Layer 1">
    <g>
      <path d="m8.59,0c2.37,0,4.52.96,6.07,2.52s2.52,3.7,2.52,6.07-.96,4.52-2.52,6.07c-1.55,1.55-3.7,2.52-6.07,2.52s-4.52-.96-6.07-2.52c-1.55-1.55-2.52-3.7-2.52-6.07S.96,4.07,2.52,2.52,6.22,0,8.59,0h0Zm4.84,3.75c-1.24-1.24-2.95-2.01-4.84-2.01s-3.61.77-4.84,2.01c-1.24,1.24-2.01,2.95-2.01,4.84s.77,3.61,2.01,4.84c1.24,1.24,2.95,2.01,4.84,2.01s3.61-.77,4.84-2.01c1.24-1.24,2.01-2.95,2.01-4.84s-.77-3.61-2.01-4.84Z" fill="#333" fill-rule="evenodd"/>
      <path d="m13.02,15.63c-.45-.45-.45-1.19,0-1.64.45-.45,1.19-.45,1.64,0l7,7c.45.45.45,1.19,0,1.64s-1.19.45-1.64,0l-7-7Z" fill="#333" fill-rule="evenodd"/>
    </g>
  </g>
</svg>