<?xml version="1.0" encoding="UTF-8"?>
<svg id="b" data-name="Layer 2" xmlns="http://www.w3.org/2000/svg" width="29.34" height="30.63" viewBox="0 0 29.34 30.63">
  <g id="c" data-name="Layer 1">
    <g>
      <path d="m11.45,0c3.16,0,6.03,1.28,8.1,3.35s3.36,4.94,3.36,8.1-1.28,6.03-3.36,8.1c-2.07,2.07-4.94,3.35-8.1,3.35s-6.03-1.28-8.1-3.35C1.28,17.48,0,14.62,0,11.45S1.28,5.43,3.35,3.35,8.29,0,11.45,0h0Zm6.46,4.99c-1.65-1.65-3.94-2.68-6.46-2.68s-4.81,1.02-6.46,2.68c-1.65,1.65-2.68,3.94-2.68,6.46s1.02,4.81,2.68,6.46c1.65,1.65,3.94,2.68,6.46,2.68s4.81-1.02,6.46-2.68c1.65-1.65,2.68-3.94,2.68-6.46s-1.02-4.81-2.68-6.46Z" fill="#333" fill-rule="evenodd"/>
      <path d="m17.35,20.84c-.61-.61-.61-1.59,0-2.19.61-.61,1.59-.61,2.19,0l9.34,9.34c.61.61.61,1.59,0,2.19s-1.59.61-2.19,0l-9.34-9.34Z" fill="#333" fill-rule="evenodd"/>
    </g>
  </g>
</svg>