<?xml version="1.0" encoding="UTF-8"?>
<svg id="b" data-name="Layer 2" xmlns="http://www.w3.org/2000/svg" width="17.5" height="31.61" xmlns:xlink="http://www.w3.org/1999/xlink" viewBox="0 0 17.5 31.61">
  <defs>
    <linearGradient id="d" x1="8.75" y1="10.18" x2="8.75" y2="27.12" gradientUnits="userSpaceOnUse">
      <stop offset=".4" stop-color="#fa7a6d"/>
      <stop offset=".53" stop-color="#f76c60"/>
      <stop offset=".76" stop-color="#f35b50"/>
      <stop offset=".93" stop-color="#f2554b"/>
    </linearGradient>
  </defs>
  <g id="c" data-name="Layer 1">
    <path d="m16.88,12.04c-.13.49-.3.93-.5,1.39,0,0-.43.89-.82,1.4-1.22,1.57-2.55,3.11-3.75,5.13-1.33,2.24-2.44,5.88-3.07,9.87-.71-3.99-1.74-7.62-3.07-9.87-1.2-2.02-2.68-3.63-3.85-5.23-.21-.29-.72-1.26-.72-1.26-.2-.46-.36-.93-.49-1.43-.21-.8-.32-1.65-.32-2.52C.3,4.42,4.08.3,8.75.3s8.45,4.13,8.45,9.22c0,.87-.11,1.72-.32,2.52Z" fill="url(#d)" stroke="#b64137" stroke-miterlimit="10" stroke-width=".59"/>
    <path d="m8.73,5.73c-1.66,0-3,1.35-3,3,0,.7.24,1.35.65,1.87.55.69,1.4,1.14,2.35,1.14s1.8-.44,2.35-1.14c.41-.51.65-1.16.65-1.87,0-1.66-1.35-3-3-3Z" fill="#5c1813"/>
  </g>
</svg>