<?xml version="1.0" encoding="UTF-8"?>
<svg id="b" data-name="Layer 2" xmlns="http://www.w3.org/2000/svg" width="23.34" height="42.15" xmlns:xlink="http://www.w3.org/1999/xlink" viewBox="0 0 23.34 42.15">
  <defs>
    <linearGradient id="d" x1="11.67" y1="13.58" x2="11.67" y2="36.15" gradientUnits="userSpaceOnUse">
      <stop offset=".4" stop-color="#fa7a6d"/>
      <stop offset=".53" stop-color="#f76c60"/>
      <stop offset=".76" stop-color="#f35b50"/>
      <stop offset=".93" stop-color="#f2554b"/>
    </linearGradient>
  </defs>
  <g id="c" data-name="Layer 1">
    <path d="m22.51,16.05c-.17.66-.4,1.24-.66,1.85,0,0-.57,1.19-1.09,1.86-1.63,2.09-3.4,4.15-5,6.84-1.78,2.99-3.25,7.84-4.09,13.15-.94-5.32-2.32-10.16-4.09-13.15-1.6-2.69-3.57-4.84-5.14-6.98-.28-.39-.95-1.67-.95-1.67-.27-.61-.48-1.24-.66-1.9-.28-1.07-.43-2.2-.43-3.36C.4,5.9,5.44.4,11.67.4s11.27,5.5,11.27,12.29c0,1.17-.15,2.29-.43,3.36Z" fill="url(#d)" stroke="#b64137" stroke-miterlimit="10" stroke-width=".79"/>
    <path d="m11.64,7.63c-2.21,0-4.01,1.8-4.01,4.01,0,.94.33,1.8.87,2.49.73.92,1.87,1.52,3.13,1.52s2.4-.59,3.14-1.52c.54-.68.87-1.55.87-2.49,0-2.21-1.8-4.01-4.01-4.01Z" fill="#5c1813"/>
  </g>
</svg>